<svg width="386" height="277" viewBox="0 0 386 277" fill="none" xmlns="http://www.w3.org/2000/svg">
<path d="M72.5 211V175H94.75V177.8H75.375V191.475H91.75V194.275H75.375V208.2H94.75V211H72.5ZM100.771 211V175H114.346C114.696 175 115.071 175.017 115.471 175.05C115.888 175.067 116.321 175.117 116.771 175.2C118.571 175.483 120.113 176.133 121.396 177.15C122.696 178.15 123.688 179.417 124.371 180.95C125.055 182.467 125.396 184.142 125.396 185.975C125.396 188.625 124.688 190.933 123.271 192.9C121.855 194.867 119.88 196.117 117.346 196.65L116.521 196.975H103.646V211H100.771ZM122.946 211L115.846 196.35L118.521 195L126.321 211H122.946ZM103.646 194.15H114.296C114.596 194.15 114.938 194.133 115.321 194.1C115.721 194.067 116.121 194.017 116.521 193.95C117.821 193.683 118.905 193.158 119.771 192.375C120.638 191.575 121.288 190.617 121.721 189.5C122.155 188.383 122.371 187.208 122.371 185.975C122.371 184.742 122.155 183.575 121.721 182.475C121.288 181.358 120.638 180.408 119.771 179.625C118.905 178.825 117.821 178.292 116.521 178.025C116.121 177.942 115.721 177.883 115.321 177.85C114.938 177.817 114.596 177.8 114.296 177.8H103.646V194.15ZM131.826 211V175H145.401C145.751 175 146.126 175.017 146.526 175.05C146.943 175.067 147.376 175.117 147.826 175.2C149.626 175.483 151.168 176.133 152.451 177.15C153.751 178.15 154.743 179.417 155.426 180.95C156.11 182.467 156.451 184.142 156.451 185.975C156.451 188.625 155.743 190.933 154.326 192.9C152.91 194.867 150.935 196.117 148.401 196.65L147.576 196.975H134.701V211H131.826ZM154.001 211L146.901 196.35L149.576 195L157.376 211H154.001ZM134.701 194.15H145.351C145.651 194.15 145.993 194.133 146.376 194.1C146.776 194.067 147.176 194.017 147.576 193.95C148.876 193.683 149.96 193.158 150.826 192.375C151.693 191.575 152.343 190.617 152.776 189.5C153.21 188.383 153.426 187.208 153.426 185.975C153.426 184.742 153.21 183.575 152.776 182.475C152.343 181.358 151.693 180.408 150.826 179.625C149.96 178.825 148.876 178.292 147.576 178.025C147.176 177.942 146.776 177.883 146.376 177.85C145.993 177.817 145.651 177.8 145.351 177.8H134.701V194.15ZM177.256 211.75C173.673 211.75 170.664 210.958 168.231 209.375C165.798 207.775 163.964 205.567 162.731 202.75C161.498 199.933 160.881 196.683 160.881 193C160.881 189.317 161.498 186.067 162.731 183.25C163.964 180.433 165.798 178.233 168.231 176.65C170.664 175.05 173.673 174.25 177.256 174.25C180.839 174.25 183.839 175.05 186.256 176.65C188.689 178.233 190.523 180.433 191.756 183.25C192.989 186.067 193.606 189.317 193.606 193C193.606 196.683 192.989 199.933 191.756 202.75C190.523 205.567 188.689 207.775 186.256 209.375C183.839 210.958 180.839 211.75 177.256 211.75ZM177.256 208.925C180.206 208.942 182.664 208.275 184.631 206.925C186.598 205.558 188.073 203.675 189.056 201.275C190.039 198.875 190.531 196.117 190.531 193C190.531 189.883 190.039 187.125 189.056 184.725C188.073 182.325 186.598 180.45 184.631 179.1C182.664 177.75 180.206 177.075 177.256 177.075C174.306 177.058 171.848 177.725 169.881 179.075C167.931 180.425 166.464 182.308 165.481 184.725C164.498 187.125 163.989 189.883 163.956 193C163.923 196.117 164.398 198.875 165.381 201.275C166.381 203.658 167.873 205.533 169.856 206.9C171.839 208.25 174.306 208.925 177.256 208.925ZM198.623 211V175H212.198C212.548 175 212.923 175.017 213.323 175.05C213.74 175.067 214.173 175.117 214.623 175.2C216.423 175.483 217.965 176.133 219.248 177.15C220.548 178.15 221.54 179.417 222.223 180.95C222.906 182.467 223.248 184.142 223.248 185.975C223.248 188.625 222.54 190.933 221.123 192.9C219.706 194.867 217.731 196.117 215.198 196.65L214.373 196.975H201.498V211H198.623ZM220.798 211L213.698 196.35L216.373 195L224.173 211H220.798ZM201.498 194.15H212.148C212.448 194.15 212.79 194.133 213.173 194.1C213.573 194.067 213.973 194.017 214.373 193.95C215.673 193.683 216.756 193.158 217.623 192.375C218.49 191.575 219.14 190.617 219.573 189.5C220.006 188.383 220.223 187.208 220.223 185.975C220.223 184.742 220.006 183.575 219.573 182.475C219.14 181.358 218.49 180.408 217.623 179.625C216.756 178.825 215.673 178.292 214.373 178.025C213.973 177.942 213.573 177.883 213.173 177.85C212.79 177.817 212.448 177.8 212.148 177.8H201.498V194.15ZM255.838 211V203.7H238.688V200.875L250.913 175H254.138L241.913 200.875H255.838V190H258.738V200.875H262.863V203.7H258.738V211H255.838ZM280.188 211.75C278.071 211.75 276.155 211.242 274.438 210.225C272.738 209.208 271.38 207.85 270.363 206.15C269.346 204.433 268.838 202.517 268.838 200.4V185.6C268.838 183.483 269.346 181.575 270.363 179.875C271.38 178.158 272.738 176.792 274.438 175.775C276.155 174.758 278.071 174.25 280.188 174.25C282.305 174.25 284.221 174.758 285.938 175.775C287.655 176.792 289.013 178.158 290.013 179.875C291.03 181.575 291.538 183.483 291.538 185.6V200.4C291.538 202.517 291.03 204.433 290.013 206.15C289.013 207.85 287.655 209.208 285.938 210.225C284.221 211.242 282.305 211.75 280.188 211.75ZM280.188 208.925C281.738 208.925 283.146 208.55 284.413 207.8C285.696 207.033 286.721 206.008 287.488 204.725C288.255 203.442 288.638 202.025 288.638 200.475V185.5C288.638 183.967 288.255 182.558 287.488 181.275C286.721 179.992 285.696 178.975 284.413 178.225C283.146 177.458 281.738 177.075 280.188 177.075C278.638 177.075 277.221 177.458 275.938 178.225C274.671 178.975 273.655 179.992 272.888 181.275C272.121 182.558 271.738 183.967 271.738 185.5V200.475C271.738 202.025 272.121 203.442 272.888 204.725C273.655 206.008 274.671 207.033 275.938 207.8C277.221 208.55 278.638 208.925 280.188 208.925ZM314.675 211V203.7H297.525V200.875L309.75 175H312.975L300.75 200.875H314.675V190H317.575V200.875H321.7V203.7H317.575V211H314.675Z" fill="#504E4E"/>
<path d="M2.24 276V252.96H10.928C11.152 252.96 11.392 252.971 11.648 252.992C11.9147 253.003 12.192 253.035 12.48 253.088C13.632 253.269 14.6187 253.685 15.44 254.336C16.272 254.976 16.9067 255.787 17.344 256.768C17.7813 257.739 18 258.811 18 259.984C18 261.168 17.7813 262.251 17.344 263.232C16.9067 264.203 16.272 265.013 15.44 265.664C14.6187 266.304 13.632 266.715 12.48 266.896C12.192 266.939 11.9147 266.971 11.648 266.992C11.392 267.013 11.152 267.024 10.928 267.024H4.08V276H2.24ZM4.08 265.216H10.896C11.088 265.216 11.3067 265.205 11.552 265.184C11.808 265.163 12.064 265.131 12.32 265.088C13.152 264.917 13.8453 264.581 14.4 264.08C14.9547 263.568 15.3707 262.955 15.648 262.24C15.9253 261.525 16.064 260.773 16.064 259.984C16.064 259.195 15.9253 258.448 15.648 257.744C15.3707 257.029 14.9547 256.421 14.4 255.92C13.8453 255.408 13.152 255.067 12.32 254.896C12.064 254.843 11.808 254.805 11.552 254.784C11.3067 254.763 11.088 254.752 10.896 254.752H4.08V265.216ZM18.015 276L26.175 252.96H28.463L36.623 276H34.671L26.831 253.92H27.759L19.967 276H18.015ZM21.391 270.208V268.464H33.231V270.208H21.391ZM48.017 276.48C46.3423 276.48 44.8543 276.192 43.553 275.616C42.2623 275.04 41.1743 274.224 40.289 273.168C39.4037 272.112 38.7317 270.848 38.273 269.376C37.8143 267.904 37.585 266.272 37.585 264.48C37.585 262.101 37.985 260.016 38.785 258.224C39.5957 256.421 40.7743 255.019 42.321 254.016C43.8677 253.013 45.7663 252.512 48.017 252.512C50.3423 252.512 52.2517 253.056 53.745 254.144C55.249 255.232 56.305 256.661 56.913 258.432L55.089 258.992C54.5557 257.573 53.6863 256.443 52.481 255.6C51.2863 254.747 49.8143 254.315 48.065 254.304C46.177 254.304 44.6037 254.736 43.345 255.6C42.097 256.453 41.1583 257.648 40.529 259.184C39.8997 260.72 39.5743 262.485 39.553 264.48C39.5317 266.475 39.8357 268.24 40.465 269.776C41.105 271.301 42.0597 272.501 43.329 273.376C44.5983 274.24 46.177 274.672 48.065 274.672C49.8677 274.683 51.3397 274.331 52.481 273.616C53.633 272.901 54.4863 271.899 55.041 270.608C55.6063 269.307 55.9103 267.787 55.953 266.048H50.225V264.368H57.873C57.905 264.635 57.921 264.896 57.921 265.152C57.9317 265.408 57.937 265.605 57.937 265.744C57.937 267.781 57.5797 269.611 56.865 271.232C56.161 272.853 55.073 274.133 53.601 275.072C52.1397 276.011 50.2783 276.48 48.017 276.48ZM61.4663 276V252.96H63.3063V276H61.4663ZM68.115 276V252.96H69.971L83.315 272.72V252.96H85.171V276H83.315L69.971 256.208V276H68.115ZM88.0463 276L96.2063 252.96H98.4943L106.654 276H104.702L96.8623 253.92H97.7903L89.9983 276H88.0463ZM91.4223 270.208V268.464H103.262V270.208H91.4223ZM122.334 276V252.96H124.19L137.534 272.72V252.96H139.39V276H137.534L124.19 256.208V276H122.334ZM153.065 276.48C150.772 276.48 148.846 275.973 147.289 274.96C145.732 273.936 144.558 272.523 143.769 270.72C142.98 268.917 142.585 266.837 142.585 264.48C142.585 262.123 142.98 260.043 143.769 258.24C144.558 256.437 145.732 255.029 147.289 254.016C148.846 252.992 150.772 252.48 153.065 252.48C155.358 252.48 157.278 252.992 158.825 254.016C160.382 255.029 161.556 256.437 162.345 258.24C163.134 260.043 163.529 262.123 163.529 264.48C163.529 266.837 163.134 268.917 162.345 270.72C161.556 272.523 160.382 273.936 158.825 274.96C157.278 275.973 155.358 276.48 153.065 276.48ZM153.065 274.672C154.953 274.683 156.526 274.256 157.785 273.392C159.044 272.517 159.988 271.312 160.617 269.776C161.246 268.24 161.561 266.475 161.561 264.48C161.561 262.485 161.246 260.72 160.617 259.184C159.988 257.648 159.044 256.448 157.785 255.584C156.526 254.72 154.953 254.288 153.065 254.288C151.177 254.277 149.604 254.704 148.345 255.568C147.097 256.432 146.158 257.637 145.529 259.184C144.9 260.72 144.574 262.485 144.553 264.48C144.532 266.475 144.836 268.24 145.465 269.776C146.105 271.301 147.06 272.501 148.329 273.376C149.598 274.24 151.177 274.672 153.065 274.672ZM179.553 276V252.96H193.793V254.752H181.393V263.504H191.873V265.296H181.393V274.208H193.793V276H179.553ZM197.646 276V252.96H199.502L212.846 272.72V252.96H214.702V276H212.846L199.502 256.208V276H197.646ZM228.378 276.48C226.084 276.48 224.159 275.973 222.602 274.96C221.044 273.936 219.871 272.523 219.082 270.72C218.292 268.917 217.898 266.837 217.898 264.48C217.898 262.123 218.292 260.043 219.082 258.24C219.871 256.437 221.044 255.029 222.602 254.016C224.159 252.992 226.084 252.48 228.378 252.48C231.055 252.48 233.226 253.173 234.89 254.56C236.564 255.947 237.7 257.803 238.298 260.128L236.394 260.592C235.903 258.661 234.986 257.131 233.642 256C232.308 254.859 230.554 254.288 228.378 254.288C226.49 254.288 224.916 254.72 223.658 255.584C222.41 256.448 221.466 257.648 220.826 259.184C220.196 260.72 219.876 262.485 219.866 264.48C219.844 266.475 220.148 268.24 220.778 269.776C221.418 271.301 222.372 272.501 223.642 273.376C224.911 274.24 226.49 274.672 228.378 274.672C230.554 274.672 232.308 274.101 233.642 272.96C234.986 271.819 235.903 270.288 236.394 268.368L238.298 268.832C237.7 271.157 236.564 273.013 234.89 274.4C233.226 275.787 231.055 276.48 228.378 276.48ZM251.003 276.48C248.709 276.48 246.784 275.973 245.227 274.96C243.669 273.936 242.496 272.523 241.707 270.72C240.917 268.917 240.523 266.837 240.523 264.48C240.523 262.123 240.917 260.043 241.707 258.24C242.496 256.437 243.669 255.029 245.227 254.016C246.784 252.992 248.709 252.48 251.003 252.48C253.296 252.48 255.216 252.992 256.763 254.016C258.32 255.029 259.493 256.437 260.283 258.24C261.072 260.043 261.467 262.123 261.467 264.48C261.467 266.837 261.072 268.917 260.283 270.72C259.493 272.523 258.32 273.936 256.763 274.96C255.216 275.973 253.296 276.48 251.003 276.48ZM251.003 274.672C252.891 274.683 254.464 274.256 255.722 273.392C256.981 272.517 257.925 271.312 258.555 269.776C259.184 268.24 259.499 266.475 259.499 264.48C259.499 262.485 259.184 260.72 258.555 259.184C257.925 257.648 256.981 256.448 255.722 255.584C254.464 254.72 252.891 254.288 251.003 254.288C249.115 254.277 247.541 254.704 246.283 255.568C245.035 256.432 244.096 257.637 243.467 259.184C242.837 260.72 242.512 262.485 242.491 264.48C242.469 266.475 242.773 268.24 243.403 269.776C244.043 271.301 244.997 272.501 246.267 273.376C247.536 274.24 249.115 274.672 251.003 274.672ZM264.678 276V252.96H266.534L279.878 272.72V252.96H281.734V276H279.878L266.534 256.208V276H264.678ZM292.545 276V254.752H284.289V252.96H302.641V254.752H294.385V276H292.545ZM305.209 276V252.96H313.897C314.121 252.96 314.361 252.971 314.617 252.992C314.883 253.003 315.161 253.035 315.449 253.088C316.601 253.269 317.587 253.685 318.409 254.336C319.241 254.976 319.875 255.787 320.313 256.768C320.75 257.739 320.969 258.811 320.969 259.984C320.969 261.68 320.515 263.157 319.609 264.416C318.702 265.675 317.438 266.475 315.817 266.816L315.289 267.024H307.049V276H305.209ZM319.401 276L314.857 266.624L316.569 265.76L321.561 276H319.401ZM307.049 265.216H313.865C314.057 265.216 314.275 265.205 314.521 265.184C314.777 265.163 315.033 265.131 315.289 265.088C316.121 264.917 316.814 264.581 317.369 264.08C317.923 263.568 318.339 262.955 318.617 262.24C318.894 261.525 319.033 260.773 319.033 259.984C319.033 259.195 318.894 258.448 318.617 257.744C318.339 257.029 317.923 256.421 317.369 255.92C316.814 255.408 316.121 255.067 315.289 254.896C315.033 254.843 314.777 254.805 314.521 254.784C314.275 254.763 314.057 254.752 313.865 254.752H307.049V265.216ZM323.484 276L331.644 252.96H333.932L342.092 276H340.14L332.3 253.92H333.228L325.436 276H323.484ZM326.86 270.208V268.464H338.7V270.208H326.86ZM344.959 276V252.96H351.823C352.089 252.96 352.521 252.965 353.119 252.976C353.727 252.987 354.303 253.035 354.847 253.12C356.575 253.355 358.009 254.005 359.151 255.072C360.292 256.128 361.145 257.472 361.711 259.104C362.276 260.725 362.559 262.517 362.559 264.48C362.559 266.453 362.276 268.256 361.711 269.888C361.145 271.509 360.292 272.848 359.151 273.904C358.009 274.96 356.575 275.605 354.847 275.84C354.303 275.915 353.721 275.963 353.103 275.984C352.495 275.995 352.068 276 351.823 276H344.959ZM346.895 274.192H351.823C352.303 274.192 352.799 274.181 353.311 274.16C353.823 274.128 354.26 274.08 354.623 274.016C356.052 273.76 357.204 273.195 358.079 272.32C358.953 271.435 359.588 270.32 359.983 268.976C360.388 267.621 360.591 266.123 360.591 264.48C360.591 262.827 360.388 261.328 359.983 259.984C359.577 258.629 358.937 257.515 358.063 256.64C357.188 255.755 356.041 255.189 354.623 254.944C354.26 254.88 353.812 254.837 353.279 254.816C352.756 254.784 352.271 254.768 351.823 254.768H346.895V274.192ZM363.89 276L372.05 252.96H374.338L382.498 276H380.546L372.706 253.92H373.634L365.842 276H363.89ZM367.266 270.208V268.464H379.106V270.208H367.266Z" fill="#504E4E"/>
<path d="M220.594 45.9252V43.2344C220.594 41.6306 219.957 40.0926 218.823 38.9586C217.689 37.8246 216.151 37.1875 214.547 37.1875H200.438V15.0156C200.438 14.481 200.225 13.9684 199.847 13.5904C199.469 13.2124 198.957 13 198.422 13C197.887 13 197.375 13.2124 196.997 13.5904C196.619 13.9684 196.406 14.481 196.406 15.0156V37.1875H182.297C180.693 37.1875 179.155 37.8246 178.021 38.9586C176.887 40.0926 176.25 41.6306 176.25 43.2344V45.9252C166.636 50.1968 158.47 57.1694 152.745 65.9953C147.019 74.8212 143.981 85.1204 144 95.6406C144 96.1752 144.212 96.6879 144.59 97.0659C144.968 97.4439 145.481 97.6562 146.016 97.6562H180.281V99.6719C180.281 104.483 182.193 109.097 185.595 112.499C188.997 115.901 193.611 117.812 198.422 117.812C203.233 117.812 207.847 115.901 211.249 112.499C214.651 109.097 216.563 104.483 216.563 99.6719V97.6562H250.828C251.363 97.6562 251.875 97.4439 252.253 97.0659C252.631 96.6879 252.844 96.1752 252.844 95.6406C252.863 85.1204 249.825 74.8212 244.099 65.9953C238.374 57.1694 230.208 50.1968 220.594 45.9252ZM212.531 99.6719C212.531 103.414 211.045 107.003 208.399 109.649C205.753 112.295 202.164 113.781 198.422 113.781C194.68 113.781 191.091 112.295 188.445 109.649C185.799 107.003 184.313 103.414 184.313 99.6719V97.6562H212.531V99.6719ZM148.072 93.625C148.439 84.0209 151.551 74.7234 157.04 66.8338C162.529 58.9443 170.165 52.7934 179.042 49.1099C179.406 48.9578 179.718 48.7019 179.939 48.374C180.159 48.0461 180.278 47.6607 180.281 47.2656V43.2344C180.281 42.6998 180.494 42.1871 180.872 41.8091C181.25 41.4311 181.762 41.2188 182.297 41.2188H214.547C215.082 41.2188 215.594 41.4311 215.972 41.8091C216.35 42.1871 216.563 42.6998 216.563 43.2344V47.2656C216.563 47.6633 216.681 48.052 216.901 48.3829C217.122 48.7137 217.435 48.9719 217.802 49.125C226.677 52.8074 234.311 58.956 239.8 66.8426C245.288 74.7292 248.402 84.0235 248.772 93.625H148.072Z" fill="#3C3936"/>
</svg>
