<svg width="43" height="41" viewBox="0 0 43 41" fill="none" xmlns="http://www.w3.org/2000/svg">
<path d="M12.7175 19.4118V10.7059C12.7175 8.39694 13.6428 6.18256 15.2897 4.54989C16.9367 2.91722 19.1705 2 21.4997 2C23.8289 2 26.0627 2.91722 27.7097 4.54989C29.3566 6.18256 30.2819 8.39694 30.2819 10.7059V19.4118" stroke="#F8F8F8" stroke-width="2.5" stroke-linecap="round"/>
<path d="M3.26346 20.8656C3.58182 17.0764 3.74209 15.1829 5.00234 14.0315C6.26258 12.8823 8.18149 12.8823 12.0171 12.8823H30.9845C34.8179 12.8823 36.7368 12.8823 37.9971 14.0315C39.2573 15.1807 39.4176 17.0764 39.7359 20.8656L40.8644 34.2857C41.0489 36.4905 41.1411 37.594 40.4912 38.297C39.8369 39 38.7216 39 36.4865 39H6.51287C4.28 39 3.16247 39 2.51039 38.297C1.85831 37.594 1.95052 36.4905 2.13714 34.2857L3.26346 20.8656Z" stroke="#F8F8F8" stroke-width="2.5"/>
</svg>
