<svg width="291" height="160" viewBox="0 0 291 160" fill="none" xmlns="http://www.w3.org/2000/svg">
<path d="M11.44 150.48C9.14667 150.48 7.22133 149.973 5.664 148.96C4.10667 147.936 2.93333 146.523 2.144 144.72C1.35467 142.917 0.96 140.837 0.96 138.48C0.96 136.123 1.35467 134.043 2.144 132.24C2.93333 130.437 4.10667 129.029 5.664 128.016C7.22133 126.992 9.14667 126.48 11.44 126.48C14.1173 126.48 16.288 127.173 17.952 128.56C19.6267 129.947 20.7627 131.803 21.36 134.128L19.456 134.592C18.9653 132.661 18.048 131.131 16.704 130C15.3707 128.859 13.616 128.288 11.44 128.288C9.552 128.288 7.97867 128.72 6.72 129.584C5.472 130.448 4.528 131.648 3.888 133.184C3.25867 134.72 2.93867 136.485 2.928 138.48C2.90667 140.475 3.21067 142.24 3.84 143.776C4.48 145.301 5.43467 146.501 6.704 147.376C7.97333 148.24 9.552 148.672 11.44 148.672C13.616 148.672 15.3707 148.101 16.704 146.96C18.048 145.819 18.9653 144.288 19.456 142.368L21.36 142.832C20.7627 145.157 19.6267 147.013 17.952 148.4C16.288 149.787 14.1173 150.48 11.44 150.48ZM31.953 150.48C30.2357 150.48 28.7797 150.091 27.585 149.312C26.3903 148.533 25.4783 147.456 24.849 146.08C24.2197 144.704 23.905 143.12 23.905 141.328C23.905 139.525 24.225 137.941 24.865 136.576C25.505 135.2 26.4223 134.133 27.617 133.376C28.8223 132.619 30.2677 132.24 31.953 132.24C33.6703 132.24 35.1263 132.629 36.321 133.408C37.5263 134.176 38.4383 135.243 39.057 136.608C39.6863 137.973 40.001 139.547 40.001 141.328C40.001 143.152 39.6863 144.752 39.057 146.128C38.4277 147.493 37.5103 148.56 36.305 149.328C35.0997 150.096 33.649 150.48 31.953 150.48ZM31.953 148.688C33.9903 148.688 35.5103 148.005 36.513 146.64C37.5263 145.275 38.033 143.504 38.033 141.328C38.033 139.109 37.5263 137.339 36.513 136.016C35.4997 134.693 33.9797 134.032 31.953 134.032C30.577 134.032 29.441 134.347 28.545 134.976C27.649 135.595 26.977 136.453 26.529 137.552C26.0917 138.64 25.873 139.899 25.873 141.328C25.873 143.547 26.385 145.328 27.409 146.672C28.4437 148.016 29.9583 148.688 31.953 148.688ZM64.0813 150L64.1133 138.384C64.1133 136.987 63.7133 135.893 62.9133 135.104C62.1239 134.304 61.1373 133.904 59.9533 133.904C59.2813 133.904 58.6146 134.059 57.9533 134.368C57.3026 134.677 56.7586 135.179 56.3213 135.872C55.8839 136.565 55.6653 137.504 55.6653 138.688L54.3693 138.48C54.3266 137.221 54.5559 136.128 55.0573 135.2C55.5693 134.261 56.2733 133.536 57.1693 133.024C58.0759 132.512 59.1053 132.256 60.2573 132.256C61.9533 132.256 63.3239 132.779 64.3693 133.824C65.4253 134.869 65.9533 136.299 65.9533 138.112L65.9213 150H64.0813ZM43.5213 150V132.72H45.2013V136.608H45.3613V150H43.5213ZM53.8093 150L53.8413 138.56C53.8413 137.131 53.4519 136 52.6733 135.168C51.8946 134.325 50.8813 133.904 49.6333 133.904C48.3639 133.904 47.3346 134.341 46.5453 135.216C45.7559 136.08 45.3613 137.237 45.3613 138.688L44.0813 138.048C44.0813 136.928 44.3373 135.936 44.8493 135.072C45.3613 134.197 46.0599 133.509 46.9453 133.008C47.8413 132.507 48.8653 132.256 50.0173 132.256C51.0519 132.256 51.9959 132.475 52.8493 132.912C53.7026 133.349 54.3853 134.011 54.8973 134.896C55.4093 135.771 55.6653 136.869 55.6653 138.192L55.6333 150H53.8093ZM77.683 150.48C76.1257 150.48 74.8083 150.075 73.731 149.264C72.6537 148.453 71.8323 147.36 71.267 145.984C70.7017 144.608 70.419 143.056 70.419 141.328C70.419 139.589 70.7017 138.037 71.267 136.672C71.8323 135.296 72.6697 134.213 73.779 133.424C74.8883 132.635 76.2483 132.24 77.859 132.24C79.427 132.24 80.7657 132.64 81.875 133.44C82.9843 134.24 83.827 135.328 84.403 136.704C84.9897 138.08 85.283 139.621 85.283 141.328C85.283 143.056 84.9843 144.613 84.387 146C83.8003 147.376 82.9417 148.469 81.811 149.28C80.691 150.08 79.315 150.48 77.683 150.48ZM70.115 157.68V132.72H71.795V146.032H71.955V157.68H70.115ZM77.571 148.72C78.8403 148.72 79.8963 148.395 80.739 147.744C81.5923 147.093 82.2323 146.213 82.659 145.104C83.0963 143.984 83.315 142.725 83.315 141.328C83.315 139.941 83.1017 138.699 82.675 137.6C82.259 136.491 81.6243 135.616 80.771 134.976C79.9283 134.325 78.851 134 77.539 134C76.2697 134 75.2083 134.315 74.355 134.944C73.5017 135.563 72.8617 136.427 72.435 137.536C72.0083 138.645 71.795 139.909 71.795 141.328C71.795 142.736 72.003 144 72.419 145.12C72.8457 146.229 73.4857 147.109 74.339 147.76C75.203 148.4 76.2803 148.72 77.571 148.72ZM88.8025 150V132.72H90.4825V136.864L90.0665 136.32C90.2585 135.829 90.4985 135.376 90.7865 134.96C91.0852 134.533 91.3892 134.187 91.6985 133.92C92.1572 133.493 92.6958 133.173 93.3145 132.96C93.9332 132.736 94.5572 132.608 95.1865 132.576C95.8158 132.533 96.3865 132.581 96.8985 132.72V134.464C96.2158 134.304 95.4905 134.272 94.7225 134.368C93.9545 134.464 93.2345 134.795 92.5625 135.36C91.9758 135.872 91.5492 136.469 91.2825 137.152C91.0158 137.824 90.8452 138.533 90.7705 139.28C90.6958 140.016 90.6585 140.736 90.6585 141.44V150H88.8025ZM104.201 150.48C102.867 150.48 101.758 150.245 100.873 149.776C99.9981 149.307 99.3421 148.688 98.9048 147.92C98.4674 147.141 98.2488 146.299 98.2488 145.392C98.2488 144.411 98.4514 143.589 98.8568 142.928C99.2728 142.267 99.8221 141.733 100.505 141.328C101.198 140.923 101.961 140.619 102.793 140.416C103.742 140.203 104.766 140.021 105.865 139.872C106.963 139.712 108.009 139.573 109.001 139.456C110.003 139.339 110.819 139.237 111.449 139.152L110.777 139.552C110.819 137.685 110.467 136.299 109.721 135.392C108.985 134.475 107.683 134.016 105.817 134.016C104.505 134.016 103.422 134.315 102.569 134.912C101.726 135.499 101.134 136.411 100.793 137.648L98.9048 137.12C99.2994 135.552 100.094 134.347 101.289 133.504C102.483 132.661 104.014 132.24 105.881 132.24C107.47 132.24 108.803 132.549 109.881 133.168C110.969 133.787 111.726 134.656 112.153 135.776C112.334 136.235 112.457 136.773 112.521 137.392C112.585 138 112.617 138.613 112.617 139.232V150H110.937V145.456L111.561 145.616C111.038 147.173 110.126 148.373 108.825 149.216C107.523 150.059 105.982 150.48 104.201 150.48ZM104.297 148.784C105.47 148.784 106.499 148.576 107.385 148.16C108.27 147.733 108.985 147.141 109.529 146.384C110.083 145.616 110.435 144.715 110.585 143.68C110.691 143.104 110.75 142.48 110.761 141.808C110.771 141.136 110.777 140.64 110.777 140.32L111.577 140.832C110.883 140.917 110.051 141.008 109.081 141.104C108.121 141.2 107.139 141.317 106.137 141.456C105.134 141.595 104.227 141.771 103.417 141.984C102.915 142.123 102.409 142.325 101.897 142.592C101.395 142.848 100.974 143.205 100.633 143.664C100.302 144.123 100.137 144.704 100.137 145.408C100.137 145.931 100.265 146.453 100.521 146.976C100.787 147.499 101.225 147.931 101.833 148.272C102.441 148.613 103.262 148.784 104.297 148.784ZM132.378 150.48C130.084 150.48 128.159 149.973 126.602 148.96C125.044 147.936 123.871 146.523 123.082 144.72C122.292 142.917 121.898 140.837 121.898 138.48C121.898 136.123 122.292 134.043 123.082 132.24C123.871 130.437 125.044 129.029 126.602 128.016C128.159 126.992 130.084 126.48 132.378 126.48C135.055 126.48 137.226 127.173 138.89 128.56C140.564 129.947 141.7 131.803 142.298 134.128L140.394 134.592C139.903 132.661 138.986 131.131 137.642 130C136.308 128.859 134.554 128.288 132.378 128.288C130.49 128.288 128.916 128.72 127.658 129.584C126.41 130.448 125.466 131.648 124.826 133.184C124.196 134.72 123.876 136.485 123.866 138.48C123.844 140.475 124.148 142.24 124.778 143.776C125.418 145.301 126.372 146.501 127.642 147.376C128.911 148.24 130.49 148.672 132.378 148.672C134.554 148.672 136.308 148.101 137.642 146.96C138.986 145.819 139.903 144.288 140.394 142.368L142.298 142.832C141.7 145.157 140.564 147.013 138.89 148.4C137.226 149.787 135.055 150.48 132.378 150.48ZM152.891 150.48C151.173 150.48 149.717 150.091 148.523 149.312C147.328 148.533 146.416 147.456 145.787 146.08C145.157 144.704 144.843 143.12 144.843 141.328C144.843 139.525 145.163 137.941 145.803 136.576C146.443 135.2 147.36 134.133 148.555 133.376C149.76 132.619 151.205 132.24 152.891 132.24C154.608 132.24 156.064 132.629 157.259 133.408C158.464 134.176 159.376 135.243 159.995 136.608C160.624 137.973 160.939 139.547 160.939 141.328C160.939 143.152 160.624 144.752 159.995 146.128C159.365 147.493 158.448 148.56 157.243 149.328C156.037 150.096 154.587 150.48 152.891 150.48ZM152.891 148.688C154.928 148.688 156.448 148.005 157.451 146.64C158.464 145.275 158.971 143.504 158.971 141.328C158.971 139.109 158.464 137.339 157.451 136.016C156.437 134.693 154.917 134.032 152.891 134.032C151.515 134.032 150.379 134.347 149.483 134.976C148.587 135.595 147.915 136.453 147.467 137.552C147.029 138.64 146.811 139.899 146.811 141.328C146.811 143.547 147.323 145.328 148.347 146.672C149.381 148.016 150.896 148.688 152.891 148.688ZM177.115 150V141.008C177.115 139.92 177.003 138.949 176.779 138.096C176.565 137.243 176.235 136.517 175.787 135.92C175.349 135.323 174.795 134.869 174.123 134.56C173.461 134.251 172.677 134.096 171.771 134.096C170.832 134.096 170.016 134.261 169.323 134.592C168.64 134.912 168.075 135.365 167.627 135.952C167.189 136.539 166.859 137.237 166.635 138.048C166.421 138.848 166.315 139.723 166.315 140.672L164.859 140.496C164.859 138.629 165.173 137.093 165.803 135.888C166.443 134.672 167.301 133.776 168.379 133.2C169.456 132.613 170.667 132.32 172.011 132.32C172.96 132.32 173.808 132.459 174.555 132.736C175.312 133.013 175.968 133.408 176.523 133.92C177.077 134.421 177.536 135.019 177.899 135.712C178.261 136.395 178.528 137.147 178.699 137.968C178.88 138.789 178.971 139.648 178.971 140.544V150H177.115ZM164.459 150V132.72H166.139V136.608H166.315V150H164.459ZM184.907 150V131.104C184.907 130.656 184.928 130.229 184.971 129.824C185.024 129.419 185.126 129.035 185.275 128.672C185.435 128.309 185.659 127.968 185.947 127.648C186.246 127.328 186.576 127.083 186.939 126.912C187.312 126.741 187.707 126.629 188.123 126.576C188.539 126.512 188.976 126.48 189.435 126.48H191.659V128.08H189.595C188.646 128.08 187.931 128.309 187.451 128.768C186.982 129.227 186.747 129.984 186.747 131.04V150H184.907ZM181.835 134.4V132.72H191.659V134.4H181.835ZM195.019 129.232V126.88H196.859V129.232H195.019ZM195.019 150V132.72H196.859V150H195.019ZM201.646 150V132.72H203.326V136.864L202.91 136.32C203.102 135.829 203.342 135.376 203.63 134.96C203.929 134.533 204.233 134.187 204.542 133.92C205.001 133.493 205.54 133.173 206.158 132.96C206.777 132.736 207.401 132.608 208.03 132.576C208.66 132.533 209.23 132.581 209.742 132.72V134.464C209.06 134.304 208.334 134.272 207.566 134.368C206.798 134.464 206.078 134.795 205.406 135.36C204.82 135.872 204.393 136.469 204.126 137.152C203.86 137.824 203.689 138.533 203.614 139.28C203.54 140.016 203.502 140.736 203.502 141.44V150H201.646ZM233.331 150L233.363 138.384C233.363 136.987 232.963 135.893 232.163 135.104C231.374 134.304 230.387 133.904 229.203 133.904C228.531 133.904 227.865 134.059 227.203 134.368C226.553 134.677 226.009 135.179 225.571 135.872C225.134 136.565 224.915 137.504 224.915 138.688L223.619 138.48C223.577 137.221 223.806 136.128 224.307 135.2C224.819 134.261 225.523 133.536 226.419 133.024C227.326 132.512 228.355 132.256 229.507 132.256C231.203 132.256 232.574 132.779 233.619 133.824C234.675 134.869 235.203 136.299 235.203 138.112L235.171 150H233.331ZM212.771 150V132.72H214.451V136.608H214.611V150H212.771ZM223.059 150L223.091 138.56C223.091 137.131 222.702 136 221.923 135.168C221.145 134.325 220.131 133.904 218.883 133.904C217.614 133.904 216.585 134.341 215.795 135.216C215.006 136.08 214.611 137.237 214.611 138.688L213.331 138.048C213.331 136.928 213.587 135.936 214.099 135.072C214.611 134.197 215.31 133.509 216.195 133.008C217.091 132.507 218.115 132.256 219.267 132.256C220.302 132.256 221.246 132.475 222.099 132.912C222.953 133.349 223.635 134.011 224.147 134.896C224.659 135.771 224.915 136.869 224.915 138.192L224.883 150H223.059ZM244.357 150.48C243.024 150.48 241.914 150.245 241.029 149.776C240.154 149.307 239.498 148.688 239.061 147.92C238.624 147.141 238.405 146.299 238.405 145.392C238.405 144.411 238.608 143.589 239.013 142.928C239.429 142.267 239.978 141.733 240.661 141.328C241.354 140.923 242.117 140.619 242.949 140.416C243.898 140.203 244.922 140.021 246.021 139.872C247.12 139.712 248.165 139.573 249.157 139.456C250.16 139.339 250.976 139.237 251.605 139.152L250.933 139.552C250.976 137.685 250.624 136.299 249.877 135.392C249.141 134.475 247.84 134.016 245.973 134.016C244.661 134.016 243.578 134.315 242.725 134.912C241.882 135.499 241.29 136.411 240.949 137.648L239.061 137.12C239.456 135.552 240.25 134.347 241.445 133.504C242.64 132.661 244.17 132.24 246.037 132.24C247.626 132.24 248.96 132.549 250.037 133.168C251.125 133.787 251.882 134.656 252.309 135.776C252.49 136.235 252.613 136.773 252.677 137.392C252.741 138 252.773 138.613 252.773 139.232V150H251.093V145.456L251.717 145.616C251.194 147.173 250.282 148.373 248.981 149.216C247.68 150.059 246.138 150.48 244.357 150.48ZM244.453 148.784C245.626 148.784 246.656 148.576 247.541 148.16C248.426 147.733 249.141 147.141 249.685 146.384C250.24 145.616 250.592 144.715 250.741 143.68C250.848 143.104 250.906 142.48 250.917 141.808C250.928 141.136 250.933 140.64 250.933 140.32L251.733 140.832C251.04 140.917 250.208 141.008 249.237 141.104C248.277 141.2 247.296 141.317 246.293 141.456C245.29 141.595 244.384 141.771 243.573 141.984C243.072 142.123 242.565 142.325 242.053 142.592C241.552 142.848 241.13 143.205 240.789 143.664C240.458 144.123 240.293 144.704 240.293 145.408C240.293 145.931 240.421 146.453 240.677 146.976C240.944 147.499 241.381 147.931 241.989 148.272C242.597 148.613 243.418 148.784 244.453 148.784ZM263.568 150.48C261.936 150.48 260.554 150.08 259.424 149.28C258.304 148.469 257.445 147.376 256.848 146C256.261 144.613 255.968 143.056 255.968 141.328C255.968 139.621 256.261 138.08 256.848 136.704C257.434 135.328 258.277 134.24 259.376 133.44C260.485 132.64 261.824 132.24 263.392 132.24C265.002 132.24 266.362 132.635 267.472 133.424C268.581 134.213 269.418 135.296 269.984 136.672C270.549 138.037 270.832 139.589 270.832 141.328C270.832 143.056 270.549 144.608 269.984 145.984C269.418 147.36 268.597 148.453 267.52 149.264C266.442 150.075 265.125 150.48 263.568 150.48ZM263.68 148.72C264.97 148.72 266.042 148.4 266.896 147.76C267.76 147.109 268.4 146.229 268.816 145.12C269.242 144 269.456 142.736 269.456 141.328C269.456 139.909 269.242 138.645 268.816 137.536C268.389 136.427 267.749 135.563 266.896 134.944C266.042 134.315 264.981 134 263.712 134C262.4 134 261.317 134.325 260.464 134.976C259.61 135.616 258.976 136.491 258.56 137.6C258.144 138.699 257.936 139.941 257.936 141.328C257.936 142.725 258.149 143.984 258.576 145.104C259.013 146.213 259.653 147.093 260.496 147.744C261.349 148.395 262.41 148.72 263.68 148.72ZM269.456 150V136.688H269.296V126.96H271.135V150H269.456ZM280.607 150.48C279.274 150.48 278.164 150.245 277.279 149.776C276.404 149.307 275.748 148.688 275.311 147.92C274.874 147.141 274.655 146.299 274.655 145.392C274.655 144.411 274.858 143.589 275.263 142.928C275.679 142.267 276.228 141.733 276.911 141.328C277.604 140.923 278.367 140.619 279.199 140.416C280.148 140.203 281.172 140.021 282.271 139.872C283.37 139.712 284.415 139.573 285.407 139.456C286.41 139.339 287.226 139.237 287.855 139.152L287.183 139.552C287.226 137.685 286.874 136.299 286.127 135.392C285.391 134.475 284.09 134.016 282.223 134.016C280.911 134.016 279.828 134.315 278.975 134.912C278.132 135.499 277.54 136.411 277.199 137.648L275.311 137.12C275.706 135.552 276.5 134.347 277.695 133.504C278.89 132.661 280.42 132.24 282.287 132.24C283.876 132.24 285.21 132.549 286.287 133.168C287.375 133.787 288.132 134.656 288.559 135.776C288.74 136.235 288.863 136.773 288.927 137.392C288.991 138 289.023 138.613 289.023 139.232V150H287.343V145.456L287.967 145.616C287.444 147.173 286.532 148.373 285.231 149.216C283.93 150.059 282.388 150.48 280.607 150.48ZM280.703 148.784C281.876 148.784 282.906 148.576 283.791 148.16C284.676 147.733 285.391 147.141 285.935 146.384C286.49 145.616 286.842 144.715 286.991 143.68C287.098 143.104 287.156 142.48 287.167 141.808C287.178 141.136 287.183 140.64 287.183 140.32L287.983 140.832C287.29 140.917 286.458 141.008 285.487 141.104C284.527 141.2 283.546 141.317 282.543 141.456C281.54 141.595 280.634 141.771 279.823 141.984C279.322 142.123 278.815 142.325 278.303 142.592C277.802 142.848 277.38 143.205 277.039 143.664C276.708 144.123 276.543 144.704 276.543 145.408C276.543 145.931 276.671 146.453 276.927 146.976C277.194 147.499 277.631 147.931 278.239 148.272C278.847 148.613 279.668 148.784 280.703 148.784Z" fill="#0E8941"/>
<g filter="url(#filter0_d_690_1595)">
<path d="M138.972 4.13225C139.87 3.14559 140.964 2.35734 142.185 1.81797C143.405 1.2786 144.725 1 146.059 1C147.393 1 148.713 1.2786 149.933 1.81797C151.153 2.35734 152.248 3.14559 153.146 4.13225L158.033 9.49892C158.982 10.5407 160.149 11.3604 161.451 11.8996C162.753 12.4387 164.158 12.6841 165.566 12.6183L172.816 12.2829C174.148 12.2201 175.478 12.4361 176.722 12.917C177.966 13.398 179.096 14.1333 180.04 15.0759C180.983 16.0185 181.72 17.1477 182.202 18.3912C182.684 19.6347 182.901 20.9652 182.84 22.2975L182.5 29.552C182.434 30.9597 182.679 32.3646 183.218 33.6665C183.757 34.9685 184.577 36.1356 185.619 37.0845L190.986 41.972C191.972 42.8702 192.76 43.9645 193.3 45.1848C193.839 46.4052 194.118 47.7247 194.118 49.0589C194.118 50.3931 193.839 51.7127 193.3 52.933C192.76 54.1534 191.972 55.2476 190.986 56.1458L185.619 61.0333C184.577 61.9823 183.757 63.1493 183.218 64.4513C182.679 65.7533 182.434 67.1581 182.5 68.5658L182.835 75.8156C182.898 77.1478 182.682 78.4785 182.201 79.7224C181.72 80.9664 180.985 82.0963 180.042 83.0398C179.099 83.9833 177.97 84.7197 176.727 85.2018C175.483 85.684 174.153 85.9012 172.82 85.8398L165.566 85.4995C164.158 85.4337 162.753 85.6791 161.451 86.2183C160.149 86.7574 158.982 87.5771 158.033 88.6189L153.146 93.9856C152.248 94.9722 151.153 95.7605 149.933 96.2999C148.713 96.8392 147.393 97.1178 146.059 97.1178C144.725 97.1178 143.405 96.8392 142.185 96.2999C140.964 95.7605 139.87 94.9722 138.972 93.9856L134.085 88.6189C133.136 87.5771 131.969 86.7574 130.667 86.2183C129.365 85.6791 127.96 85.4337 126.552 85.4995L119.302 85.8349C117.97 85.8977 116.639 85.6817 115.395 85.2008C114.151 84.7198 113.022 83.9845 112.078 83.0419C111.135 82.0993 110.398 80.9701 109.916 79.7266C109.434 78.4831 109.217 77.1527 109.278 75.8204L109.618 68.5658C109.684 67.1581 109.439 65.7533 108.9 64.4513C108.36 63.1493 107.541 61.9823 106.499 61.0333L101.132 56.1458C100.146 55.2476 99.3573 54.1534 98.818 52.933C98.2786 51.7127 98 50.3931 98 49.0589C98 47.7247 98.2786 46.4052 98.818 45.1848C99.3573 43.9645 100.146 42.8702 101.132 41.972L106.499 37.0845C107.541 36.1356 108.36 34.9685 108.9 33.6665C109.439 32.3646 109.684 30.9597 109.618 29.552L109.283 22.3022C109.22 20.97 109.436 19.6394 109.917 18.3954C110.398 17.1514 111.133 16.0215 112.076 15.078C113.019 14.1345 114.148 13.3981 115.391 12.916C116.635 12.4339 117.965 12.2166 119.297 12.2781L126.552 12.6183C127.96 12.6841 129.365 12.4387 130.667 11.8996C131.969 11.3604 133.136 10.5407 134.085 9.49892L138.972 4.13225Z" stroke="#0E8941" stroke-width="1.5"/>
<path d="M131.684 49.0589L141.267 58.6423L160.434 39.4756" stroke="#0E8941" stroke-width="1.5" stroke-linecap="round" stroke-linejoin="round"/>
</g>
<defs>
<filter id="filter0_d_690_1595" x="93.25" y="0.25" width="105.618" height="105.618" filterUnits="userSpaceOnUse" color-interpolation-filters="sRGB">
<feFlood flood-opacity="0" result="BackgroundImageFix"/>
<feColorMatrix in="SourceAlpha" type="matrix" values="0 0 0 0 0 0 0 0 0 0 0 0 0 0 0 0 0 0 127 0" result="hardAlpha"/>
<feOffset dy="4"/>
<feGaussianBlur stdDeviation="2"/>
<feComposite in2="hardAlpha" operator="out"/>
<feColorMatrix type="matrix" values="0 0 0 0 0 0 0 0 0 0 0 0 0 0 0 0 0 0 0.25 0"/>
<feBlend mode="normal" in2="BackgroundImageFix" result="effect1_dropShadow_690_1595"/>
<feBlend mode="normal" in="SourceGraphic" in2="effect1_dropShadow_690_1595" result="shape"/>
</filter>
</defs>
</svg>
