<svg width="51" height="48" viewBox="0 0 51 48" fill="none" xmlns="http://www.w3.org/2000/svg">
<g filter="url(#filter0_d_514_1120)">
<path d="M14.489 22.9969L26.6211 34.8952C27.1806 35.4633 27.4902 36.2242 27.4832 37.014C27.4762 37.8038 27.1532 38.5593 26.5837 39.1177C26.0142 39.6762 25.2439 39.993 24.4386 39.9999C23.6333 40.0067 22.8574 39.7031 22.2781 39.1544L4.9031 22.1143C4.61689 21.8352 4.38976 21.5034 4.23478 21.1379C4.07979 20.7724 4 20.3805 4 19.9847C4 19.5889 4.07979 19.1969 4.23478 18.8315C4.38976 18.466 4.61689 18.1342 4.9031 17.8551L22.2781 0.814957C22.86 0.279819 23.6314 -0.0123024 24.429 0.000400543C25.2266 0.0131035 25.9878 0.329632 26.5517 0.883015C27.1155 1.4364 27.4378 2.18321 27.4501 2.96544C27.4625 3.74767 27.1641 4.50394 26.6181 5.07423L14.4859 16.9725L43.9286 16.9725C44.7432 16.9725 45.5244 17.2898 46.1004 17.8547C46.6764 18.4196 47 19.1858 47 19.9847C47 20.7836 46.6764 21.5498 46.1004 22.1147C45.5244 22.6796 44.7432 22.9969 43.9286 22.9969L14.489 22.9969Z" fill="#666563"/>
</g>
<defs>
<filter id="filter0_d_514_1120" x="0" y="0" width="51" height="48" filterUnits="userSpaceOnUse" color-interpolation-filters="sRGB">
<feFlood flood-opacity="0" result="BackgroundImageFix"/>
<feColorMatrix in="SourceAlpha" type="matrix" values="0 0 0 0 0 0 0 0 0 0 0 0 0 0 0 0 0 0 127 0" result="hardAlpha"/>
<feOffset dy="4"/>
<feGaussianBlur stdDeviation="2"/>
<feComposite in2="hardAlpha" operator="out"/>
<feColorMatrix type="matrix" values="0 0 0 0 0 0 0 0 0 0 0 0 0 0 0 0 0 0 0.25 0"/>
<feBlend mode="normal" in2="BackgroundImageFix" result="effect1_dropShadow_514_1120"/>
<feBlend mode="normal" in="SourceGraphic" in2="effect1_dropShadow_514_1120" result="shape"/>
</filter>
</defs>
</svg>
