<svg width="163" height="183" viewBox="0 0 163 183" fill="none" xmlns="http://www.w3.org/2000/svg">
<path d="M24.156 26V13.112H6.48V26H4.752V0.259999H6.48V11.564H24.156V0.259999H25.884V26H24.156ZM45.2731 26.36C41.9371 26.36 39.1411 25.196 36.8851 22.868C34.6291 20.54 33.5011 17.696 33.5011 14.336C33.5011 10.952 34.6291 8.096 36.8851 5.768C39.1411 3.44 41.9371 2.276 45.2731 2.276C48.6091 2.276 51.4051 3.44 53.6611 5.768C55.9171 8.096 57.0451 10.952 57.0451 14.336C57.0451 17.696 55.9171 20.54 53.6611 22.868C51.4051 25.196 48.6091 26.36 45.2731 26.36ZM45.2731 3.752C42.3931 3.752 39.9931 4.772 38.0731 6.812C36.1771 8.852 35.2291 11.36 35.2291 14.336C35.2291 17.288 36.1771 19.784 38.0731 21.824C39.9931 23.84 42.3931 24.848 45.2731 24.848C48.1771 24.848 50.5771 23.84 52.4731 21.824C54.3691 19.784 55.3171 17.288 55.3171 14.336C55.3171 11.36 54.3691 8.852 52.4731 6.812C50.5771 4.772 48.1771 3.752 45.2731 3.752ZM74.0174 3.752C71.3534 3.752 69.1094 4.772 67.2854 6.812C65.4854 8.828 64.5854 11.312 64.5854 14.264C64.5854 17.216 65.6054 19.724 67.6454 21.788C69.6854 23.828 72.0854 24.848 74.8454 24.848C77.6294 24.848 79.7894 24.524 81.3254 23.876V14.264H82.9814V24.632C81.1094 25.784 78.4574 26.36 75.0254 26.36C71.5934 26.36 68.7014 25.196 66.3494 22.868C63.9974 20.54 62.8214 17.684 62.8214 14.3C62.8214 10.892 63.8774 8.036 65.9894 5.732C68.1254 3.428 70.8734 2.276 74.2334 2.276C76.9454 2.276 79.5974 2.696 82.1894 3.536L81.7574 4.904C79.2614 4.136 76.6814 3.752 74.0174 3.752ZM91.9915 17.9L88.6435 26H86.9515L96.7435 2.492H97.7155L107.58 26H105.744L102.36 17.9H91.9915ZM97.1395 5.156C96.7795 6.236 96.4555 7.136 96.1675 7.856L92.5675 16.496H101.784L98.2195 7.892C97.6675 6.548 97.3075 5.636 97.1395 5.156ZM112.32 26V2.744C114.384 2.576 116.136 2.492 117.576 2.492C119.784 2.492 121.608 3.068 123.048 4.22C124.488 5.348 125.208 6.968 125.208 9.08C125.208 10.496 124.8 11.804 123.984 13.004C123.168 14.204 122.244 15.176 121.212 15.92C124.068 19.712 125.832 21.98 126.504 22.724C127.872 24.14 129.36 24.944 130.968 25.136L130.932 26.252C129.588 26.228 128.496 26.036 127.656 25.676C126.816 25.292 125.976 24.656 125.136 23.768C124.32 22.88 122.508 20.492 119.7 16.604C117.756 16.604 115.848 16.544 113.976 16.424V26H112.32ZM118.8 15.236C119.736 15.236 120.744 14.612 121.824 13.364C122.904 12.116 123.444 10.664 123.444 9.008C123.444 7.352 122.88 6.092 121.752 5.228C120.624 4.364 119.16 3.932 117.36 3.932C116.4 3.932 115.272 3.98 113.976 4.076V15.056C115.704 15.176 117.312 15.236 118.8 15.236ZM10.872 65H9.252V56.648L0.432 41.636H2.412L9.216 53.228C9.744 54.284 10.044 54.848 10.116 54.92C10.26 54.608 10.56 54.056 11.016 53.264L17.82 41.636H19.692L10.872 56.72V65ZM15.156 102.776H14.184L7.38 86.252C7.092 85.604 6.804 84.848 6.516 83.984C6.516 84.008 6.492 84.14 6.444 84.38C6.42 84.62 6.384 84.944 6.336 85.352C6.288 85.736 6.24 86.06 6.192 86.324L3.492 104H1.872L5.688 80.492H6.66L13.932 97.736C14.508 99.176 14.796 99.932 14.796 100.004C14.964 99.5 15.288 98.756 15.768 97.772L23.868 80.492H24.84L28.404 104H26.676L24.12 86.252C23.952 85.076 23.868 84.296 23.868 83.912L22.824 86.288L15.156 102.776ZM44.9215 104.36C41.5855 104.36 38.7895 103.196 36.5335 100.868C34.2775 98.54 33.1495 95.696 33.1495 92.336C33.1495 88.952 34.2775 86.096 36.5335 83.768C38.7895 81.44 41.5855 80.276 44.9215 80.276C48.2575 80.276 51.0535 81.44 53.3095 83.768C55.5655 86.096 56.6935 88.952 56.6935 92.336C56.6935 95.696 55.5655 98.54 53.3095 100.868C51.0535 103.196 48.2575 104.36 44.9215 104.36ZM44.9215 81.752C42.0415 81.752 39.6415 82.772 37.7215 84.812C35.8255 86.852 34.8775 89.36 34.8775 92.336C34.8775 95.288 35.8255 97.784 37.7215 99.824C39.6415 101.84 42.0415 102.848 44.9215 102.848C47.8255 102.848 50.2255 101.84 52.1215 99.824C54.0175 97.784 54.9655 95.288 54.9655 92.336C54.9655 89.36 54.0175 86.852 52.1215 84.812C50.2255 82.772 47.8255 81.752 44.9215 81.752ZM71.3978 102.776C74.4698 102.776 76.9298 101.948 78.7778 100.292C80.6498 98.636 81.5858 96.14 81.5858 92.804C81.5858 89.468 80.5298 86.816 78.4178 84.848C76.3298 82.88 73.7498 81.896 70.6778 81.896C68.4938 81.896 66.8138 81.944 65.6378 82.04V102.524C67.0778 102.692 68.9978 102.776 71.3978 102.776ZM70.6778 80.42C74.2778 80.42 77.2778 81.536 79.6778 83.768C82.1018 85.976 83.3138 88.988 83.3138 92.804C83.3138 96.62 82.1978 99.488 79.9658 101.408C77.7578 103.328 74.9018 104.288 71.3978 104.288C68.9738 104.288 66.4778 104.168 63.9098 103.928V80.636C65.8298 80.492 68.0858 80.42 70.6778 80.42ZM91.2533 95.9L87.9053 104H86.2133L96.0053 80.492H96.9773L106.841 104H105.005L101.621 95.9H91.2533ZM96.4013 83.156C96.0413 84.236 95.7173 85.136 95.4293 85.856L91.8293 94.496H101.045L97.4813 85.892C96.9293 84.548 96.5693 83.636 96.4013 83.156ZM4.32 143V119.636H15.228V121.076H5.976V129.572H14.328V130.976H5.976V141.488H15.588V143H4.32ZM22.2145 143V119.492H23.0065L38.3425 137.132C38.8945 137.756 39.3985 138.38 39.8545 139.004C40.3345 139.604 40.5865 139.916 40.6105 139.94C40.5625 139.364 40.5385 138.236 40.5385 136.556V119.636H42.1945V143.144H41.4025L25.7785 125.216L23.7985 122.804C23.8465 123.284 23.8705 124.412 23.8705 126.188V143H22.2145ZM5.472 173.9L2.124 182H0.432L10.224 158.492H11.196L21.06 182H19.224L15.84 173.9H5.472ZM10.62 161.156C10.26 162.236 9.936 163.136 9.648 163.856L6.048 172.496H15.264L11.7 163.892C11.148 162.548 10.788 161.636 10.62 161.156ZM25.8005 182V158.744C27.8645 158.576 29.6165 158.492 31.0565 158.492C33.2645 158.492 35.0885 159.068 36.5285 160.22C37.9685 161.348 38.6885 162.968 38.6885 165.08C38.6885 166.496 38.2805 167.804 37.4645 169.004C36.6485 170.204 35.7245 171.176 34.6925 171.92C37.5485 175.712 39.3125 177.98 39.9845 178.724C41.3525 180.14 42.8405 180.944 44.4485 181.136L44.4125 182.252C43.0685 182.228 41.9765 182.036 41.1365 181.676C40.2965 181.292 39.4565 180.656 38.6165 179.768C37.8005 178.88 35.9885 176.492 33.1805 172.604C31.2365 172.604 29.3285 172.544 27.4565 172.424V182H25.8005ZM32.2805 171.236C33.2165 171.236 34.2245 170.612 35.3045 169.364C36.3845 168.116 36.9245 166.664 36.9245 165.008C36.9245 163.352 36.3605 162.092 35.2325 161.228C34.1045 160.364 32.6405 159.932 30.8405 159.932C29.8805 159.932 28.7525 159.98 27.4565 160.076V171.056C29.1845 171.176 30.7925 171.236 32.2805 171.236ZM58.5388 180.776H57.5668L50.7628 164.252C50.4748 163.604 50.1868 162.848 49.8988 161.984C49.8988 162.008 49.8748 162.14 49.8268 162.38C49.8028 162.62 49.7668 162.944 49.7188 163.352C49.6708 163.736 49.6228 164.06 49.5748 164.324L46.8748 182H45.2548L49.0708 158.492H50.0428L57.3148 175.736C57.8908 177.176 58.1788 177.932 58.1788 178.004C58.3468 177.5 58.6708 176.756 59.1508 175.772L67.2508 158.492H68.2228L71.7868 182H70.0588L67.5028 164.252C67.3348 163.076 67.2508 162.296 67.2508 161.912L66.2068 164.288L58.5388 180.776ZM88.3043 182.36C84.9683 182.36 82.1723 181.196 79.9163 178.868C77.6603 176.54 76.5323 173.696 76.5323 170.336C76.5323 166.952 77.6603 164.096 79.9163 161.768C82.1723 159.44 84.9683 158.276 88.3043 158.276C91.6403 158.276 94.4363 159.44 96.6923 161.768C98.9483 164.096 100.076 166.952 100.076 170.336C100.076 173.696 98.9483 176.54 96.6923 178.868C94.4363 181.196 91.6403 182.36 88.3043 182.36ZM88.3043 159.752C85.4243 159.752 83.0243 160.772 81.1043 162.812C79.2083 164.852 78.2603 167.36 78.2603 170.336C78.2603 173.288 79.2083 175.784 81.1043 177.824C83.0243 179.84 85.4243 180.848 88.3043 180.848C91.2083 180.848 93.6083 179.84 95.5043 177.824C97.4003 175.784 98.3483 173.288 98.3483 170.336C98.3483 167.36 97.4003 164.852 95.5043 162.812C93.6083 160.772 91.2083 159.752 88.3043 159.752ZM107.293 182V158.492H108.085L123.421 176.132C123.973 176.756 124.477 177.38 124.933 178.004C125.413 178.604 125.665 178.916 125.689 178.94C125.641 178.364 125.617 177.236 125.617 175.556V158.636H127.273V182.144H126.481L110.857 164.216L108.877 161.804C108.925 162.284 108.949 163.412 108.949 165.188V182H107.293ZM135.91 182V158.636H137.566V182H135.91ZM141.166 154.856L135.91 156.764L134.686 156.404L140.95 152.948L141.166 154.856ZM147.363 173.9L144.015 182H142.323L152.115 158.492H153.087L162.951 182H161.115L157.731 173.9H147.363ZM152.511 161.156C152.151 162.236 151.827 163.136 151.539 163.856L147.939 172.496H157.155L153.591 163.892C153.039 162.548 152.679 161.636 152.511 161.156Z" fill="#79756F"/>
</svg>
