<svg width="49" height="42" viewBox="0 0 49 42" fill="none" xmlns="http://www.w3.org/2000/svg">
<path d="M43.4875 4.72506C42.8488 4.17695 42.0903 3.74213 41.2554 3.44546C40.4204 3.14879 39.5255 2.99609 38.6217 2.99609C37.7178 2.99609 36.8229 3.14879 35.988 3.44546C35.153 3.74213 34.3945 4.17695 33.7558 4.72506L7.88029 26.9056C7.11029 27.5656 6.55029 28.3846 6.25629 29.2846L3.54904 37.5721C3.48649 37.7642 3.48465 37.9671 3.54371 38.16C3.60277 38.3529 3.72061 38.5289 3.88515 38.67C4.0497 38.811 4.25502 38.912 4.4801 38.9626C4.70518 39.0132 4.94191 39.0117 5.16604 38.9581L14.833 36.6376C15.8837 36.3874 16.8407 35.9078 17.6103 35.2456L43.4875 13.0651C44.1267 12.5176 44.6338 11.8675 44.9798 11.152C45.3257 10.4365 45.5038 9.66958 45.5038 8.89506C45.5038 8.12053 45.3257 7.3536 44.9798 6.63809C44.6338 5.92258 44.1267 5.27252 43.4875 4.72506ZM35.6125 6.31506C36.4108 5.631 37.4935 5.24677 38.6223 5.24692C39.7511 5.24706 40.8336 5.63155 41.6317 6.31581C42.4297 7.00006 42.878 7.92804 42.8778 8.89559C42.8777 9.86313 42.4291 10.791 41.6308 11.4751L38.9358 13.7836L32.9175 8.62356L35.6125 6.31506ZM31.0625 10.2151L37.0825 15.3751L15.7535 33.6556C15.3031 34.0442 14.7421 34.3255 14.126 34.4716L6.70429 36.2521L8.78154 29.8921C8.95416 29.3648 9.28198 28.8844 9.73354 28.4971L31.0625 10.2151Z" fill="white"/>
</svg>
