<svg width="45" height="40" viewBox="0 0 45 40" fill="none" xmlns="http://www.w3.org/2000/svg">
<path d="M44.645 38.023L33.3195 27.9558C36.5492 24.6544 38.2106 20.3673 37.9535 15.9983C37.6965 11.6292 35.5411 7.51957 31.9418 4.53557C28.3424 1.55158 23.5802 -0.0736234 18.659 0.00256249C13.7379 0.0787484 9.04227 1.85037 5.56197 4.94397C2.08166 8.03757 0.0885919 12.2115 0.0028828 16.5858C-0.0828263 20.9602 1.74552 25.1932 5.10252 28.3927C8.45952 31.5921 13.0829 33.508 17.9981 33.7365C22.9133 33.965 27.7362 32.4881 31.4503 29.6174L42.7758 39.6845C43.0265 39.8921 43.3581 40.0052 43.7008 39.9998C44.0434 39.9944 44.3703 39.8711 44.6126 39.6557C44.8549 39.4403 44.9937 39.1497 44.9998 38.8451C45.0058 38.5406 44.8787 38.2458 44.645 38.023ZM2.71114 16.9091C2.71114 14.0414 3.66779 11.2381 5.46013 8.85376C7.25247 6.46938 9.79998 4.61099 12.7805 3.51358C15.7611 2.41618 19.0408 2.12905 22.2049 2.6885C25.369 3.24795 28.2755 4.62886 30.5567 6.65661C32.8379 8.68435 34.3914 11.2679 35.0208 14.0804C35.6502 16.893 35.3272 19.8083 34.0926 22.4576C32.858 25.107 30.7673 27.3715 28.0849 28.9647C25.4025 30.5578 22.2488 31.4082 19.0227 31.4082C14.6982 31.4035 10.5524 29.8745 7.49448 27.1563C4.43661 24.4382 2.71639 20.753 2.71114 16.9091Z" fill="#F8F8F8"/>
</svg>
