<svg width="172" height="42" viewBox="0 0 172 42" fill="none" xmlns="http://www.w3.org/2000/svg">
<path d="M170 29.9166C170.69 29.9166 171.25 29.357 171.25 28.6666C171.25 27.9763 170.69 27.4166 170 27.4166V29.9166ZM0 29.9166H170V27.4166H0V29.9166Z" fill="#FFFDFD"/>
<path d="M170 16.5834C170.69 16.5834 171.25 16.0237 171.25 15.3334C171.25 14.643 170.69 14.0834 170 14.0834L170 16.5834ZM46.6666 16.5834L170 16.5834L170 14.0834L46.6666 14.0834L46.6666 16.5834Z" fill="#FFFDFD"/>
<path d="M170 3.25C170.69 3.25 171.25 2.69036 171.25 2C171.25 1.30964 170.69 0.75 170 0.75V3.25ZM90 3.25L170 3.25V0.75L90 0.75V3.25Z" fill="#FFFDFD"/>
</svg>
