<svg width="49" height="40" viewBox="0 0 49 40" fill="none" xmlns="http://www.w3.org/2000/svg">
<path d="M24.5 40C24.1616 39.999 23.8331 39.8967 23.5658 39.709C15.0507 33.7221 9.18504 28.5668 5.08063 23.4808C-0.157092 16.9811 -1.35166 10.9804 1.52755 5.64495C3.57976 1.83388 9.47602 -1.28426 16.3678 0.531191C19.6536 1.39005 22.5205 3.2319 24.5 5.75582C26.4795 3.2319 29.3464 1.39005 32.6322 0.531191C39.5087 -1.25655 45.4202 1.83388 47.4724 5.64495C50.3517 10.9804 49.1571 16.9811 43.9194 23.4808C39.815 28.5668 33.9493 33.7221 25.4342 39.709C25.1669 39.8967 24.8384 39.999 24.5 40ZM12.4471 2.79011C10.8073 2.73236 9.18101 3.07982 7.74289 3.7952C6.30478 4.51057 5.10911 5.56684 4.28425 6.85064C1.91043 11.2576 2.98248 16.1635 7.56165 21.8316C12.4281 27.5116 18.1265 32.5655 24.5 36.8541C30.8724 32.5698 36.5709 27.5205 41.4383 21.8455C46.0328 16.1635 47.0896 11.2576 44.7158 6.86449C43.1843 4.09281 38.5898 1.88932 33.4746 3.19201C31.8344 3.63063 30.3139 4.37513 29.0109 5.37759C27.7079 6.38005 26.6512 7.61827 25.909 9.01255C25.7936 9.26673 25.5973 9.48413 25.3451 9.63713C25.0928 9.79013 24.796 9.87182 24.4923 9.87182C24.1887 9.87182 23.8919 9.79013 23.6396 9.63713C23.3874 9.48413 23.1911 9.26673 23.0757 9.01255C22.339 7.61478 21.2842 6.37367 19.9804 5.37058C18.6766 4.3675 17.1532 3.62508 15.5101 3.19201C14.5146 2.93036 13.4838 2.79511 12.4471 2.79011Z" fill="#F8F8F8"/>
</svg>
