<svg width="34" height="32" viewBox="0 0 34 32" fill="none" xmlns="http://www.w3.org/2000/svg">
<path d="M33.8072 30.0529C31.3201 25.8445 27.4874 22.8268 23.0145 21.3963C25.227 20.1072 26.9459 18.1429 27.9074 15.8051C28.8689 13.4672 29.0197 10.8851 28.3367 8.45526C27.6536 6.02542 26.1745 3.88219 24.1265 2.35472C22.0785 0.827255 19.5749 0 17 0C14.4251 0 11.9215 0.827255 9.87346 2.35472C7.82545 3.88219 6.34637 6.02542 5.66334 8.45526C4.98032 10.8851 5.13111 13.4672 6.09258 15.8051C7.05405 18.1429 8.77302 20.1072 10.9855 21.3963C6.51262 22.8252 2.67988 25.8429 0.192758 30.0529C0.101551 30.1984 0.041054 30.3604 0.0148365 30.5292C-0.0113811 30.698 -0.00278804 30.8702 0.0401085 31.0357C0.0830051 31.2013 0.159336 31.3567 0.264598 31.4928C0.369861 31.629 0.501921 31.7432 0.652989 31.8286C0.804057 31.914 0.971072 31.9689 1.14418 31.9901C1.31729 32.0113 1.49298 31.9984 1.6609 31.952C1.82881 31.9057 1.98554 31.8269 2.12185 31.7204C2.25815 31.6138 2.37127 31.4816 2.45452 31.3315C5.53116 26.1274 10.9692 23.0202 17 23.0202C23.0308 23.0202 28.4688 26.1274 31.5455 31.3315C31.6287 31.4816 31.7418 31.6138 31.8782 31.7204C32.0145 31.8269 32.1712 31.9057 32.3391 31.952C32.507 31.9984 32.6827 32.0113 32.8558 31.9901C33.0289 31.9689 33.1959 31.914 33.347 31.8286C33.4981 31.7432 33.6301 31.629 33.7354 31.4928C33.8407 31.3567 33.917 31.2013 33.9599 31.0357C34.0028 30.8702 34.0114 30.698 33.9852 30.5292C33.9589 30.3604 33.8984 30.1984 33.8072 30.0529ZM7.85498 11.5123C7.85498 9.74202 8.39132 8.01151 9.39619 6.53959C10.4011 5.06767 11.8293 3.92044 13.5004 3.24299C15.1714 2.56554 17.0101 2.38829 18.7841 2.73365C20.5581 3.07901 22.1875 3.93148 23.4665 5.18324C24.7455 6.43501 25.6164 8.02986 25.9693 9.76611C26.3222 11.5024 26.1411 13.302 25.4489 14.9375C24.7567 16.5731 23.5846 17.9709 22.0807 18.9545C20.5768 19.938 18.8087 20.4629 17 20.4629C14.5754 20.4604 12.2508 19.5165 10.5364 17.8385C8.8219 16.1605 7.85757 13.8854 7.85498 11.5123Z" fill="#232323"/>
</svg>
